<svg width="163" height="109" viewBox="0 0 163 109" fill="none" xmlns="http://www.w3.org/2000/svg">
<path d="M78 44V1C78 0.447715 78.4477 0 79 0H87.2828C87.8288 0 88.2738 0.437846 88.2827 0.983706L88.9834 43.9837C88.9925 44.5423 88.5422 45 87.9836 45H79C78.4477 45 78 44.5523 78 44Z" fill="#C4FAC6"/>
<path d="M89.404 46.8045L107.248 7.91154C107.479 7.40854 108.075 7.18863 108.577 7.42087L116.083 10.891C116.588 11.1245 116.805 11.7253 116.566 12.2279L98.1038 51.0801C97.8637 51.5854 97.2557 51.7954 96.7549 51.546L89.8672 48.1167C89.3838 47.876 89.1788 47.2952 89.404 46.8045Z" fill="#C4FAC6"/>
<path d="M99.9069 49.7542L133.84 21.5421C134.216 21.2293 134.763 21.2346 135.133 21.5546L141.108 26.7204C141.575 27.1243 141.568 27.851 141.093 28.2458L107.16 56.4579C106.784 56.7707 106.237 56.7654 105.867 56.4454L99.8921 51.2796C99.425 50.8757 99.432 50.149 99.9069 49.7542Z" fill="#C4FAC6"/>
<path d="M113.395 73.0144L110.342 65.2083C110.15 64.7165 110.373 64.1599 110.852 63.9373L150.676 45.4245C151.179 45.1906 151.777 45.4113 152.007 45.9162L155.585 53.7581C155.814 54.2601 155.594 54.8527 155.092 55.0825L114.743 73.5594C114.221 73.7986 113.605 73.5495 113.395 73.0144Z" fill="#C4FAC6"/>
<path d="M117 84V75C117 74.4477 117.448 74 118 74H162C162.552 74 163 74.4477 163 75V84C163 84.5523 162.552 85 162 85H118C117.448 85 117 84.5523 117 84Z" fill="#C4FAC6"/>
<path d="M65.7416 51.1786L47.4481 11.6666C47.2055 11.1424 47.4561 10.5222 47.9948 10.3138L55.6696 7.34481C56.1683 7.1519 56.7305 7.38538 56.9458 7.8748L74.5637 47.9259C74.7988 48.4603 74.5279 49.0817 73.9763 49.2732L66.9771 51.7031C66.4917 51.8716 65.9575 51.6449 65.7416 51.1786Z" fill="#C4FAC6"/>
<path d="M59.6016 70.6136C71.0515 66.1286 75.9321 60.2864 80.581 48.0341C80.9295 47.1154 82.2907 47.1618 82.5812 48.1004C86.5932 61.0656 91.8885 66.3541 103.391 70.6481C104.268 70.9754 104.295 72.2455 103.434 72.614C91.58 77.6903 86.8528 83.6695 82.8126 95.4987C82.4833 96.4629 81.0339 96.4198 80.7523 95.4405C77.1893 83.0522 71.819 77.5613 59.585 72.5798C58.7177 72.2266 58.7296 70.9551 59.6016 70.6136Z" fill="#C4FAC6"/>
<path d="M0 84V75C0 74.4477 0.447715 74 1 74H46C46.5523 74 47 74.4477 47 75V84C47 84.5523 46.5523 85 46 85H1C0.447715 85 0 84.5523 0 84Z" fill="#C4FAC6"/>
<path d="M49.7449 73.4717L7.85969 52.1128C7.38002 51.8682 7.18014 51.2877 7.4075 50.7997L11.0639 42.9509C11.305 42.4332 11.9299 42.2223 12.4355 42.4879L53.2481 63.9305C53.6817 64.1584 53.8865 64.6667 53.7318 65.1315L51.148 72.8966C50.9548 73.4772 50.29 73.7497 49.7449 73.4717Z" fill="#C4FAC6"/>
<path d="M56.305 56.4718L21.9278 28.3588C21.4448 27.9637 21.4375 27.2276 21.9127 26.8231L28.1059 21.5517C28.4795 21.2337 29.0287 21.2337 29.4023 21.5517L63.1053 50.2385C63.5745 50.6378 63.5745 51.3622 63.1053 51.7615L57.5862 56.4592C57.2182 56.7724 56.679 56.7777 56.305 56.4718Z" fill="#C4FAC6"/>
<rect y="95" width="163" height="14" fill="#C4FAC6"/>
</svg>
